# xmcd CD database file
#
# Track frame offsets:
#	150
#	16317
#	27383
#	41803
#	57570
#	67802
#	82706
#	99020
#	118243
#	132218
#	148755
#	165597
#
# Disc length: 2454 seconds
#
# Revision: 0
# Processed by: cddbd v1.4PL0 Copyright (c) Steve Scherf et al.
# Submitted via: CDex 1.40Release
#
DISCID=9909940c
DTITLE=Tom Skinner - Acoustic Skinner
DYEAR=1998
DGENRE=Country
TTITLE0=Fine and Mellow
TTITLE1=Awkward Age
TTITLE2=Ropin' Fool
TTITLE3=Hey Sarah
TTITLE4=I Take My Own Breath Away
TTITLE5=Enjoy The Ride
TTITLE6=Blood Mixed With Dust
TTITLE7=Scenery
TTITLE8=Feeling That Makes Us Roam
TTITLE9=Faith Can Turn the Tide
TTITLE10=Mama Must Be Praying (acoustic)
TTITLE11=$1000 Wedding
EXTD=YEAR: 1998 ID3G: 2
EXTT0=
EXTT1=
EXTT2=
EXTT3=
EXTT4=
EXTT5=
EXTT6=
EXTT7=
EXTT8=
EXTT9=
EXTT10=
EXTT11=
PLAYORDER=
